<svg width="17" height="19" viewBox="0 0 17 19" fill="none" xmlns="http://www.w3.org/2000/svg">
<path d="M1.68434 19.0009C1.20419 19.0009 0.803605 18.8404 0.48258 18.5194C0.161555 18.1984 0.00069486 17.7978 0 17.3176V4.0076C0 3.52815 0.16086 3.12791 0.48258 2.80689C0.8043 2.48586 1.20489 2.325 1.68434 2.32431H3.52815V0H4.6507V2.32431H12.1072V0H13.1495V2.32431H14.9933C15.4728 2.32431 15.8734 2.48517 16.1951 2.80689C16.5168 3.12861 16.6773 3.52919 16.6766 4.00865V17.3176C16.6766 17.7971 16.5161 18.1977 16.1951 18.5194C15.8741 18.8411 15.4731 19.0016 14.9923 19.0009H1.68434ZM1.68434 17.9586H14.9933C15.1532 17.9586 15.3001 17.8919 15.4342 17.7585C15.5683 17.6251 15.635 17.4778 15.6343 17.3166V8.1778H1.04229V17.3176C1.04229 17.4775 1.109 17.6244 1.24241 17.7585C1.37582 17.8926 1.52278 17.9593 1.6833 17.9586M1.04229 7.13447H15.6343V4.0076C15.6343 3.84779 15.5676 3.70082 15.4342 3.56671C15.3008 3.43261 15.1535 3.3659 14.9923 3.3666H1.68434C1.52383 3.3666 1.37652 3.4333 1.24241 3.56671C1.1083 3.70013 1.04159 3.84744 1.04229 4.00865V7.13447ZM3.64801 11.1838V10.1415H13.0286V11.1838H3.64801ZM3.64801 15.3529V14.3106H9.90175V15.3529H3.64801Z" fill="black"/>
</svg>
