<svg width="17" height="19" viewBox="0 0 17 19" fill="none" xmlns="http://www.w3.org/2000/svg">
<path d="M2.964 19V9.99189C2.014 9.74559 1.28215 9.32196 0.768445 8.721C0.256148 8.12004 0 7.38502 0 6.51594V0H1.05556V5.98817H2.964V0H4.01956V5.98817H5.928V0H6.98356V6.51594C6.98356 7.38502 6.7267 8.12004 6.213 8.721C5.7007 9.32126 4.96956 9.74454 4.01956 9.99083V19H2.964ZM12.8493 19V9.63617C11.8993 9.30543 11.1678 8.72241 10.6548 7.88711C10.1418 7.05182 9.88563 6.03919 9.88633 4.84922C9.88633 3.51359 10.2287 2.37148 10.9134 1.42289C11.5981 0.474296 12.4193 0 13.3771 0C14.3482 0 15.1764 0.475352 15.8618 1.42606C16.5465 2.37676 16.8889 3.51993 16.8889 4.85556C16.8889 6.05889 16.6292 7.07715 16.1099 7.91033C15.5899 8.74422 14.8548 9.3195 13.9048 9.63617V19H12.8493Z" fill="black"/>
</svg>
