<svg width="157" height="20" viewBox="0 0 157 20" fill="none" xmlns="http://www.w3.org/2000/svg">
<path d="M39.2183 4.50428C38.5357 4.50428 38.4958 4.62461 38.4958 5.46753V12.9781C38.4958 15.3076 38.7766 17.436 41.4269 17.436C41.8286 17.436 42.1902 17.3553 42.5113 17.2349C42.8729 17.1146 43.395 16.6726 43.5153 16.6726C43.8367 16.6726 43.9972 17.1146 43.9171 17.3553C43.1942 18.1988 41.7485 19.2028 39.7003 19.2028C36.2465 19.2028 35.5236 17.2751 35.5236 14.8658V5.66887C35.5236 4.5844 35.4837 4.50428 34.6801 4.50428H33.5558C33.3151 4.34315 33.2743 3.90144 33.4354 3.66077C34.6 3.29919 35.604 2.77706 36.0055 2.41547C36.5276 1.93326 37.2904 0.849086 37.6922 0.0460802C37.8929 -0.0340455 38.3749 -0.0340458 38.5357 0.246831V2.05418C38.5357 2.77706 38.5759 2.81697 39.2585 2.81697H43.7164C44.1983 3.17885 44.1181 4.26302 43.7566 4.50428H39.2183Z" fill="#4C4B49"/>
<path d="M50.422 7.15483C53.3939 7.15483 54.2776 6.9937 54.5987 6.75304C54.719 6.67291 54.8399 6.51179 54.8399 5.98966C54.8399 4.86527 54.0765 3.45943 51.7474 3.45943C49.3778 3.45943 47.3298 5.62865 47.2896 6.95379C47.2896 7.03391 47.2896 7.15483 47.5705 7.15483H50.422ZM47.932 8.35934C46.8878 8.35934 46.8476 8.43976 46.8476 9.4438C46.8476 13.5002 49.2175 16.9541 53.5142 16.9541C54.8399 16.9541 55.9643 16.5523 57.209 14.9862C57.6107 14.8658 57.8922 15.1065 57.9321 15.4681C56.6067 18.1988 53.715 19.2028 51.6265 19.2028C49.0162 19.2028 46.9679 18.0784 45.8037 16.5523C44.5989 14.9862 44.117 13.0984 44.117 11.3316C44.117 6.39145 47.3697 2.25492 52.1888 2.25492C55.6429 2.25492 57.8922 4.62461 57.8922 7.03391C57.8922 7.59683 57.8112 7.91763 57.7311 8.07817C57.6107 8.31942 57.0484 8.35934 55.362 8.35934H47.932Z" fill="#4C4B49"/>
<path d="M60.943 7.11462C60.943 5.54824 60.943 5.34719 59.8589 4.62461L59.497 4.38336C59.3368 4.22281 59.3368 3.78081 59.5372 3.66048C60.4611 3.3391 62.5895 2.29484 63.5935 1.69259C63.794 1.7328 63.9143 1.81292 63.9143 1.97405V4.30294C63.9143 4.50427 63.9551 4.62461 64.0352 4.66452C65.4405 3.50022 66.9666 2.25492 68.4525 2.25492C69.4566 2.25492 70.2601 2.8971 70.2601 3.86123C70.2601 5.18665 69.176 5.70878 68.533 5.70878C68.1318 5.70878 67.9307 5.58845 67.6498 5.42732C67.0476 5.0264 66.4445 4.78515 65.8825 4.78515C65.24 4.78515 64.7581 5.14673 64.4364 5.58845C64.0352 6.15078 63.9143 7.31508 63.9143 8.68101V14.1424C63.9143 17.0342 63.9953 17.5161 65.5215 17.6364L66.9666 17.7571C67.2481 17.9581 67.1679 18.6408 66.8865 18.7611C64.9993 18.6807 63.8342 18.6408 62.429 18.6408C60.9832 18.6408 59.7779 18.6807 58.7339 18.7611C58.4531 18.6408 58.3726 17.9581 58.6535 17.7571L59.4169 17.6364C60.9028 17.3958 60.943 17.0342 60.943 14.1424V7.11462Z" fill="#4C4B49"/>
<path d="M72.7886 7.11462C72.7886 5.54824 72.7886 5.34719 71.7044 4.62461L71.3425 4.38336C71.1823 4.22281 71.1823 3.78081 71.3828 3.66048C72.3067 3.3391 74.435 2.29484 75.4391 1.69259C75.6395 1.7328 75.7599 1.81292 75.7599 1.97405V4.30294C75.7599 4.50427 75.8006 4.62461 75.8808 4.66452C77.286 3.50022 78.8121 2.25492 80.2981 2.25492C81.3021 2.25492 82.1057 2.8971 82.1057 3.86123C82.1057 5.18665 81.0215 5.70878 80.3785 5.70878C79.9773 5.70878 79.7763 5.58845 79.4954 5.42732C78.8931 5.0264 78.29 4.78515 77.728 4.78515C77.0855 4.78515 76.6036 5.14673 76.282 5.58845C75.8808 6.15078 75.7599 7.31508 75.7599 8.68101V14.1424C75.7599 17.0342 75.8409 17.5161 77.367 17.6364L78.8121 17.7571C79.0936 17.9581 79.0135 18.6408 78.732 18.7611C76.8449 18.6807 75.6797 18.6408 74.2745 18.6408C72.8288 18.6408 71.6234 18.6807 70.5795 18.7611C70.2986 18.6408 70.2182 17.9581 70.4991 17.7571L71.2624 17.6364C72.7484 17.3958 72.7886 17.0342 72.7886 14.1424V7.11462Z" fill="#4C4B49"/>
<path d="M87.8691 17.3961C88.6721 17.3961 89.9173 16.7932 90.3185 16.392C90.8004 15.9101 90.8004 15.3478 90.8404 14.5043L90.9214 12.1346C90.9214 11.6926 90.7602 11.6125 90.5196 11.6125C90.2783 11.6125 89.5957 11.7736 88.8731 12.0142C86.5035 12.8175 85.3389 13.4201 85.3389 14.9862C85.3389 15.6689 85.8208 17.3961 87.8691 17.3961ZM90.359 10.3275C90.9613 10.1265 91.0417 9.76548 91.0417 9.16293L91.0819 7.31538C91.1218 5.82941 90.6399 3.82132 88.1499 3.82132C87.0256 3.82132 85.66 4.38336 85.5796 5.62866C85.5396 6.27112 85.4994 6.75333 85.1778 6.994C84.5755 7.47592 83.4914 7.75738 82.8891 7.75738C82.5273 7.75738 82.3268 7.55605 82.3268 7.19505C82.3268 5.10682 86.865 2.25493 89.7964 2.25493C92.6882 2.25493 94.094 3.94165 93.9736 6.9538L93.7321 13.9419C93.652 15.7892 94.0136 17.4363 95.5799 17.4363C95.9811 17.4363 96.3427 17.3154 96.5839 17.195C96.7844 17.0747 96.9851 16.9142 97.1061 16.9142C97.2663 16.9142 97.3866 17.1548 97.3866 17.4363C97.3866 17.6367 95.9811 19.2031 94.0136 19.2031C93.0497 19.2031 92.0859 18.8415 91.4033 17.9584C91.2421 17.7169 91.0015 17.3961 90.7602 17.3961C90.4794 17.3961 89.9975 17.7571 89.1942 18.1991C88.3111 18.681 87.4274 19.2031 86.3027 19.2031C85.1379 19.2031 84.1737 18.8815 83.4914 18.2792C82.7286 17.5965 82.2467 16.5925 82.2467 15.4681C82.2467 13.902 83.0095 12.9781 85.5796 12.0542L90.359 10.3275Z" fill="#4C4B49"/>
<path d="M102.383 4.50428C101.701 4.50428 101.661 4.62461 101.661 5.46753V12.9781C101.661 15.3076 101.942 17.436 104.592 17.436C104.994 17.436 105.355 17.3553 105.676 17.2349C106.038 17.1146 106.56 16.6726 106.68 16.6726C107.002 16.6726 107.162 17.1146 107.082 17.3553C106.359 18.1988 104.914 19.2028 102.865 19.2028C99.4116 19.2028 98.6887 17.2751 98.6887 14.8658V5.66887C98.6887 4.5844 98.6488 4.50428 97.8452 4.50428H96.7209C96.4802 4.34315 96.44 3.90144 96.6006 3.66077C97.7651 3.29919 98.7691 2.77706 99.1706 2.41547C99.6928 1.93326 100.456 0.849086 100.857 0.0460802C101.058 -0.0340455 101.54 -0.0340458 101.701 0.246831V2.05418C101.701 2.77706 101.741 2.81697 102.424 2.81697H106.881C107.363 3.17885 107.283 4.26302 106.922 4.50428H102.383Z" fill="#4C4B49"/>
<path d="M115.194 3.45973C112.543 3.45973 110.575 5.98996 110.575 10.4079C110.575 14.0626 112.222 17.9986 115.756 17.9986C119.29 17.9986 120.375 14.3038 120.375 11.2112C120.375 7.7976 119.009 3.45973 115.194 3.45973ZM123.828 10.5685C123.828 15.5887 120.375 19.2031 115.355 19.2031C110.736 19.2031 107.122 15.9503 107.122 10.9301C107.122 5.86962 110.937 2.25523 115.676 2.25523C120.174 2.25523 123.828 5.62896 123.828 10.5685Z" fill="#4C4B49"/>
<path d="M126.276 7.11462C126.276 5.54824 126.276 5.34719 125.192 4.62461L124.831 4.38336C124.67 4.22281 124.67 3.78081 124.871 3.66048C125.795 3.3391 128.083 2.29484 128.887 1.69259C129.047 1.69259 129.248 1.77271 129.329 1.97405C129.248 2.8971 129.248 3.50022 129.248 3.86123C129.248 4.10248 129.409 4.30294 129.69 4.30294C131.377 3.25897 133.264 2.25492 135.312 2.25492C138.646 2.25492 140.011 4.54419 140.011 7.23496V14.1424C140.011 17.0342 140.092 17.436 141.537 17.6364L142.421 17.7571C142.702 17.9581 142.621 18.6408 142.341 18.7611C141.136 18.6807 139.971 18.6408 138.565 18.6408C137.12 18.6408 135.915 18.6807 134.83 18.7611C134.549 18.6408 134.469 17.9581 134.75 17.7571L135.513 17.6364C136.999 17.3958 137.04 17.0342 137.04 14.1424V8.15888C137.04 5.86932 135.995 4.1826 133.264 4.1826C131.738 4.1826 130.413 4.82507 129.851 5.58845C129.329 6.27112 129.248 6.83316 129.248 7.99775V14.1424C129.248 17.0342 129.329 17.3958 130.774 17.6364L131.497 17.7571C131.778 17.9581 131.698 18.6408 131.417 18.7611C130.333 18.6807 129.168 18.6408 127.762 18.6408C126.317 18.6408 125.111 18.6807 123.987 18.7611C123.706 18.6408 123.626 17.9581 123.907 17.7571L124.75 17.6364C126.236 17.436 126.276 17.0342 126.276 14.1424V7.11462Z" fill="#4C4B49"/>
<path d="M148.644 7.15483C151.616 7.15483 152.5 6.9937 152.821 6.75304C152.941 6.67291 153.062 6.51179 153.062 5.98966C153.062 4.86527 152.299 3.45943 149.97 3.45943C147.6 3.45943 145.552 5.62865 145.512 6.95379C145.512 7.03391 145.512 7.15483 145.793 7.15483H148.644ZM146.154 8.35934C145.11 8.35934 145.07 8.43976 145.07 9.4438C145.07 13.5002 147.44 16.9541 151.736 16.9541C153.062 16.9541 154.186 16.5523 155.431 14.9862C155.833 14.8658 156.114 15.1065 156.154 15.4681C154.829 18.1988 151.937 19.2028 149.849 19.2028C147.238 19.2028 145.19 18.0784 144.026 16.5523C142.821 14.9862 142.339 13.0984 142.339 11.3316C142.339 6.39145 145.592 2.25492 150.411 2.25492C153.865 2.25492 156.114 4.62461 156.114 7.03391C156.114 7.59683 156.033 7.91763 155.953 8.07817C155.833 8.31942 155.271 8.35934 153.584 8.35934H146.154Z" fill="#4C4B49"/>
<path d="M12.0091 0.221425L14.3091 1.83203L2.29983 18.9826L-0.00019697 17.372L12.0091 0.221425Z" fill="#4C4B49"/>
<path d="M21.0613 0.222094L23.3604 1.83203L11.3511 18.9826L9.05203 17.3726L21.0613 0.222094Z" fill="#4C4B49"/>
</svg>
